<?xml version="1.0" standalone="no"?>
<!DOCTYPE svg PUBLIC "-//W3C//DTD SVG 20010904//EN"
 "http://www.w3.org/TR/2001/REC-SVG-20010904/DTD/svg10.dtd">
<svg version="1.0" xmlns="http://www.w3.org/2000/svg"
 width="125.000000pt" height="154.000000pt" viewBox="0 0 125.000000 154.000000"
 preserveAspectRatio="xMidYMid meet">

<g transform="translate(0.000000,154.000000) scale(0.100000,-0.100000)"
fill="#000000" stroke="none">
<path d="M0 770 l0 -770 622 2 623 3 1 373 c1 301 -2 374 -12 383 -11 9 -14
76 -14 341 0 283 2 329 15 334 11 4 15 21 15 55 l0 49 -625 0 -624 0 -1 -770z
m1111 670 c18 -10 19 -28 19 -667 0 -597 -2 -658 -17 -675 -15 -17 -44 -18
-490 -18 -309 0 -473 3 -473 10 0 6 4 10 9 10 11 0 26 92 22 133 -1 15 2 33 7
40 5 7 16 37 24 68 13 52 13 57 -6 82 -15 21 -17 30 -8 39 17 17 15 47 -3 54
-10 4 -15 20 -15 45 0 28 -7 45 -24 61 -23 22 -24 26 -14 70 10 41 9 51 -5 66
-14 16 -16 57 -17 342 -1 299 0 325 16 337 23 17 944 19 975 3z m-921 -956 c0
-8 -4 -12 -10 -9 -5 3 -10 13 -10 21 0 8 5 12 10 9 6 -3 10 -13 10 -21z"/>
<path d="M215 1341 c-3 -6 9 -7 30 -4 31 5 35 3 35 -15 0 -12 -7 -25 -16 -30
-15 -8 -15 -10 0 -15 20 -8 21 -46 2 -53 -8 -3 -25 0 -38 7 -21 11 -22 11 -9
-4 17 -21 54 -22 71 -2 11 13 11 20 0 40 -11 20 -11 27 0 40 10 12 10 18 0 30
-14 17 -65 20 -75 6z"/>
<path d="M540 1265 c-7 -9 -10 -25 -6 -41 9 -33 88 -117 101 -107 29 21 85 99
85 118 0 43 -51 61 -75 28 -13 -17 -14 -17 -32 0 -24 21 -56 22 -73 2z"/>
<path d="M204 1145 c-5 -11 51 -105 62 -105 10 0 62 95 57 106 -6 17 -34 19
-50 3 -8 -8 -13 -8 -17 0 -10 16 -46 13 -52 -4z"/>
<path d="M548 836 c-29 -22 -21 -52 30 -106 l47 -52 31 30 c69 66 83 114 39
134 -20 9 -28 8 -44 -6 -18 -17 -22 -17 -43 -2 -27 19 -37 20 -60 2z"/>
<path d="M372 619 c-14 -5 -22 -17 -22 -32 0 -13 -5 -28 -12 -35 -9 -9 -4 -14
20 -23 39 -13 39 -25 7 -90 -14 -27 -23 -54 -20 -59 3 -4 18 -11 35 -15 22 -5
37 -1 60 17 l31 23 41 -24 c40 -23 42 -23 55 -5 17 23 17 48 -2 85 -12 21 -13
34 -5 48 13 24 13 98 1 106 -16 9 -165 13 -189 4z"/>
<path d="M948 423 c-32 -42 -34 -55 -12 -74 14 -11 18 -10 30 6 13 18 15 18
33 1 46 -42 57 29 12 75 -16 16 -31 29 -33 29 -2 -1 -15 -17 -30 -37z"/>
<path d="M605 370 c-10 -22 -23 -40 -30 -40 -17 0 -45 -33 -45 -53 0 -19 27
-47 45 -47 8 0 23 9 33 20 l19 20 18 -20 c20 -23 45 -26 63 -8 15 15 16 55 2
71 -6 7 -28 31 -49 55 l-38 43 -18 -41z"/>
<path d="M420 325 c0 -8 4 -15 10 -15 5 0 7 7 4 15 -4 8 -8 15 -10 15 -2 0 -4
-7 -4 -15z"/>
<path d="M952 298 c-16 -16 -15 -40 1 -57 10 -11 10 -14 0 -18 -28 -10 -1 -62
32 -62 6 0 2 4 -7 10 -10 5 -18 17 -18 26 0 9 8 22 18 29 16 13 16 13 0 14
-12 0 -18 8 -18 25 0 28 25 44 43 26 6 -6 16 -11 22 -11 16 1 -27 30 -45 30
-9 0 -21 -5 -28 -12z"/>
<path d="M1005 180 c-3 -5 -2 -10 4 -10 5 0 13 5 16 10 3 6 2 10 -4 10 -5 0
-13 -4 -16 -10z"/>
</g>
</svg>
